<svg aria-hidden="true" style="width:0;height:0;position:absolute;overflow:hidden" xmlns="http://www.w3.org/2000/svg"><defs><symbol id="icon-heart" viewBox="0 0 28 32"><path stroke-width=".308" d="M.667 11.16c.587 2.696 1.894 5.088 3.953 7.163 1.839 1.86 3.455 2.99 6.008 4.163h.001l1.238.581v8.47h1.73v-7.901l.159.047c.229.066.567.066.796 0h.001l.159-.046v7.901h1.73v-8.481l1.179-.536c2.469-1.138 4.263-2.372 6.008-4.141 2.786-2.829 4.217-6.052 4.217-9.561.012-3.851-2.01-7-5.213-8.076-.689-.24-1.054-.274-2.316-.262M.667 11.16l13.614-8.305-.098-.072M.667 11.16C.533 10.545.465 9.706.462 8.884c-.003-.82.059-1.636.194-2.201.723-3.189 2.943-5.549 5.82-6.152M.667 11.16 6.475.531M20.317.482zm0 0c-.658.006-1.07.02-1.444.074-.376.054-.709.146-1.208.303h-.002c-1.188.385-2.356.994-3.133 1.632l-.001.001-.346.291m0 0-.543-.401C11.968 1.152 10.255.553 8.244.471h-.001A15.571 15.571 0 0 0 7.207.47c-.312.01-.586.03-.733.063m7.709 2.25L6.475.532m6.684 3.701c-.238-.226-.669-.537-1.14-.832a9.827 9.827 0 0 0-1.336-.718 10.047 10.047 0 0 0-1.5-.419c-1.975-.362-3.49.022-4.825 1.21l-.001.001a6.666 6.666 0 0 0-.795.844 3.015 3.015 0 0 0-.232.33l.243.044c.238.042.56.096.909.154 1.231.192 2.186.449 3.209.942 1.02.492 2.103 1.215 3.592 2.33l.001.001c.605.464 1.625 1.059 2.651 1.541l.003.001c.458.226.898.452 1.238.636.17.092.316.175.427.242.056.034.104.064.142.091a.608.608 0 0 1 .098.08c.128.137.234.274.318.447s.141.372.182.631c.081.512.098 1.281.098 2.571 0 1.17.003 1.784.034 2.135.015.175.036.271.061.332a.362.362 0 0 0 .096.135c.246.24.583.23.762.031l.004-.004c.05-.052.097-.135.125-.456.027-.32.033-.837.033-1.723 0-1.173.029-1.886.159-2.378a1.75 1.75 0 0 1 .292-.622 2.34 2.34 0 0 1 .488-.459l.002-.001a1.77 1.77 0 0 1 .647-.308c.27-.071.643-.124 1.24-.193h.001c1.864-.207 2.941-.447 4.23-.937.405-.154.704-.268.927-.371.225-.103.357-.188.439-.273a.501.501 0 0 0 .134-.302c.02-.142.014-.324.002-.588v-.003a8.836 8.836 0 0 0-.256-1.707v-.001c-.709-2.681-2.921-4.56-5.316-4.56-1.787 0-3.967.84-5.314 2.061l-.001.001c-.22.197-.405.352-.572.459s-.327.175-.495.182a.843.843 0 0 1-.486-.149 3.572 3.572 0 0 1-.517-.425zm-9.972.388-.003-.001.003.001zm5.826 3.976-.001-.001C7.78 7.682 6.435 7.012 5.25 6.717a14.269 14.269 0 0 0-1.803-.295 6.97 6.97 0 0 0-.715-.04 1.234 1.234 0 0 0-.224.019 2.17 2.17 0 0 0-.148.496 8.7 8.7 0 0 0-.127.893c-.063.665-.077 1.407-.019 1.947.316 2.926 1.588 5.398 4.032 7.743 1.927 1.865 4.325 3.319 7.043 4.235l.002.001.862.305.874-.306c2.542-.871 5.036-2.326 6.844-4.018 1.246-1.168 1.889-1.964 2.711-3.37l.001-.001c.254-.428.603-1.203.874-1.892.135-.344.248-.661.32-.899a2.99 2.99 0 0 0 .058-.218 13.238 13.238 0 0 0-.912.3h-.001c-1.188.432-2.967.816-4.402.944h-.001l-.063.005c-.323.027-.548.045-.715.089-.166.044-.252.106-.311.216-.067.126-.107.328-.127.676-.018.322-.018.746-.018 1.313v.121c0 1.098-.014 1.745-.096 2.184a1.768 1.768 0 0 1-.189.553 1.974 1.974 0 0 1-.328.417c-.235.247-.47.425-.733.54s-.547.164-.871.164c-.5 0-.927-.099-1.284-.317s-.63-.547-.835-.983c-.105-.223-.164-.436-.198-.864-.033-.423-.042-1.067-.042-2.156 0-.906-.009-1.537-.031-1.957a4.775 4.775 0 0 0-.042-.47.824.824 0 0 0-.035-.144c-.001-.001-.007-.008-.023-.02s-.039-.029-.068-.048a3.193 3.193 0 0 0-.225-.13 8.752 8.752 0 0 0-.654-.31c-1.006-.42-2.333-1.164-3.138-1.761-.296-.219-.959-.703-1.48-1.084l-.001-.001zM2.49 6.407c-.002.001-.002.001 0 0zm.036-.038-.001.002.001-.002z"/></symbol><symbol id="icon-cup" viewBox="0 0 35 32"><path d="M.808.677C.286 1.031 0 1.531 0 2.083c0 .375 5.198 28.208 5.382 28.792.092.323.471.708.87.917C6.631 32 6.897 32 17.6 32s10.969 0 11.348-.208c.399-.208.778-.594.87-.917.184-.583 5.382-28.417 5.382-28.792 0-.552-.286-1.052-.808-1.406l-.348-.24H1.157l-.348.24zm30.35 3.792c-.102.833-.696 2.646-1.136 3.469-2.139 3.958-6.191 6.365-11.215 6.646-3.796.219-7.009-.552-9.7-2.323a11.697 11.697 0 0 1-3.776-4.062c-.512-.906-1.187-2.854-1.289-3.729l-.072-.594h27.26l-.072.594zM7.316 15.198c4.39 2.958 10.949 3.74 16.474 1.948 1.842-.594 3.725-1.594 5.3-2.812.46-.365.491-.365.44-.135-.031.135-.634 3.323-1.34 7.073s-1.3 6.927-1.33 7.052l-.051.24H8.39l-.051-.24c-.031-.125-.624-3.302-1.33-7.052s-1.31-6.938-1.34-7.073c-.051-.229-.02-.229.44.135.266.208.819.594 1.207.865z"/></symbol><symbol id="icon-cream" viewBox="0 0 49 32"><path d="M2.771.378c-.921.493-1.454 1.48-1.454 2.648.016 2.138.549 4.095 1.616 5.789l.469.773-.889 1.003c-1.002 1.118-1.244 1.53-1.696 2.862-.372 1.086-.404 3.059-.081 4.161 1.131 3.783 4.879 5.97 8.547 5 1.244-.329 2.003-.74 3.167-1.727l.986-.822.921.46a23.2 23.2 0 0 0 1.955.855l1.002.362v1.842c0 2.911.598 4.638 2.133 6.201s3.942 2.368 6.026 2.007c1.486-.263 2.94-1.003 3.926-2.007 1.535-1.563 2.133-3.29 2.133-6.201v-1.842l1.018-.362a25.933 25.933 0 0 0 1.939-.855l.921-.46.986.822c1.163.987 1.923 1.398 3.167 1.727 3.668.97 7.416-1.217 8.547-5 .323-1.102.291-3.076-.081-4.161-.452-1.332-.695-1.743-1.696-2.862l-.889-1.003.469-.773c1.066-1.694 1.599-3.651 1.616-5.789 0-1.168-.533-2.155-1.454-2.648L45.38 0H3.47l-.695.378zm38.776 5.148c0 .049-.469.822-1.05 1.743-1.713 2.714-1.648 3.306.63 5.707.824.872 1.583 1.743 1.697 1.941.614 1.217-.614 2.73-1.971 2.418-.323-.066-1.034-.642-2.068-1.661-2.068-2.039-2.779-2.27-4.362-1.365-1.826 1.053-4.152 2.122-5.283 2.434-1.599.46-2.149.806-2.569 1.678-.339.674-.372.954-.372 3.586 0 3.24-.129 3.766-1.05 4.211-.662.329-.792.329-1.454 0-.921-.444-1.05-.97-1.05-4.211 0-2.632-.032-2.911-.355-3.586-.436-.855-.986-1.217-2.585-1.678-1.389-.395-3.441-1.299-4.572-2.039-1.066-.691-2.003-.954-2.747-.822-.485.099-.969.477-2.262 1.743-1.066 1.036-1.826 1.645-2.149 1.711-1.341.312-2.569-1.217-1.955-2.418.113-.197.872-1.069 1.696-1.941 2.278-2.401 2.343-2.993.63-5.707-.582-.921-1.05-1.694-1.05-1.743 0-.066 7.707-.099 17.126-.099s17.126.033 17.126.099z"/></symbol><symbol id="icon-Vector-1" viewBox="0 0 26 32"><path stroke-linejoin="round" stroke-linecap="round" stroke-width="6.4" d="M5.173 3.2 19.342 16 5.173 28.8"/></symbol></defs></svg>